<?xml version="1.0" encoding="UTF-8"?>
<svg id="Layer_1" xmlns="http://www.w3.org/2000/svg" xmlns:xlink="http://www.w3.org/1999/xlink" version="1.1" viewBox="0 0 512 512">
  <!-- Generator: Adobe Illustrator 30.0.0, SVG Export Plug-In . SVG Version: 2.1.1 Build 123)  -->
  <defs>
    <style>
      .st0 {
        fill: url(#linear-gradient);
      }
    </style>
    <linearGradient id="linear-gradient" x1="12.22" y1="256" x2="499.78" y2="256" gradientUnits="userSpaceOnUse">
      <stop offset="0" stop-color="#fff7a1"/>
      <stop offset=".08" stop-color="#f9e589"/>
      <stop offset=".24" stop-color="#e9b74c"/>
      <stop offset=".29" stop-color="#e4a837"/>
      <stop offset=".33" stop-color="#e9b84b"/>
      <stop offset=".44" stop-color="#f5da76"/>
      <stop offset=".53" stop-color="#fcef90"/>
      <stop offset=".58" stop-color="#fff79a"/>
      <stop offset=".62" stop-color="#fdf294"/>
      <stop offset=".67" stop-color="#f9e583"/>
      <stop offset=".73" stop-color="#f1ce67"/>
      <stop offset=".79" stop-color="#e7b041"/>
      <stop offset=".8" stop-color="#e4a837"/>
      <stop offset=".84" stop-color="#ebbc52"/>
      <stop offset=".91" stop-color="#f6dc7d"/>
      <stop offset=".97" stop-color="#fcf097"/>
      <stop offset="1" stop-color="#fff7a1"/>
    </linearGradient>
  </defs>
  <path class="st0" d="M366.46,462.25c-.06-9.03.08-18.08.02-27.11-.64-98.97-.19-198.71-1.1-297.65-1.1-10.4,1.55-24.19,0-34.18-.17-1.06-.68-2.01-1.56-2.65-2.28-1.67-6.16-3.12-8.58-4.56-8.78-5.23-18.28-11.6-27.51-16.14-2.23-1.1-6.63-3.82-7.05-.36-1.12,9.17.18,22.4.05,32.13-1.35,99.62-.45,200.53-.6,300.36-.03,21.72.36,43.5-.49,65.14-.11,2.83.76,6.87-.11,9.36-.62,1.78-7.77,5.21-9.83,6.47-9.4,5.76-20.37,12.99-30.43,17.43-1.22.54-4.77,2.54-5.29.86l-.29-510.34c5.18,1,9.04,4.45,13.52,6.91,30.4,16.65,61.37,33.89,91.62,50.92,9.73,5.48,21.87,11.23,30.94,17.44.89.61,3.34,2.48,3.51,3.33-.19,71.19.22,142.38.02,213.57-.13,46.91-.95,94.28-.57,141.45-.19,1-1.31,2.07-2.12,2.62-3.03,2.05-7.35,3.95-10.45,5.85-4.25,2.6-8.47,5.09-12.83,7.68-3.97,2.36-14.44,10.08-17.74,11.18-1.09.36-2.01.38-3.13.29ZM234.43,453.53c.15-148.78.37-298.25,1.05-447.06.01-2.21,1.8-5.06-.84-6.48-12.63,6.48-25.01,13.47-37.18,20.53-15.19,8.82-30.07,18.14-45.12,26.93-15.48,9.05-31.25,17.42-46.69,26.41-2.38,1.38-4.47,3.69-7.28,4.56l-1.22,3.77c-.47,31.54.48,63.25.58,94.67.28,86.94-.33,173.88.06,260.81.24.71,1.7,1.38,2.39,1.82,6.3,4,13.08,7.27,19.55,10.95,2.19,1.24,22.85,13.85,23.73,12.82,1.42-27.46-.05-54.9-.02-82.33,0-3.83.57-8.13.58-12.05.1-88.73-.14-177.79-.01-266.67.6-3.15,11.47-7.6,14.38-9.29,8.05-4.7,17.96-12.05,26.28-15.8,3.27-1.47,4.24-1.39,4.59,2.43,2.17,23.86-2.12,50.61.53,74.69-1.97,107.75,2.77,215.3.53,322.99-.06,2.89-1.82,9.62.52,11.53,2.58,2.11,7.65,3.93,10.67,5.63,7.73,4.35,15.01,8.31,22.82,12.42,3.03,1.59,6.23,5.23,10.14,4.85,1.28-19.37-.03-38.74-.01-58.15ZM452.7,104.31c-1.99,35.11.47,73.51.58,108.87.2,66.01-.42,132.09.24,198.04l1.47.95c5.94-3.63,12.13-6.8,18.19-10.21,6.8-3.83,15.83-8.28,22.11-12.61,1.59-1.1,2.95-2.75,3.15-4.74,0-76.84.45-153.5,1.12-230.3.07-7.58.47-16.26,0-23.72-.21-3.27-.46-6.24-3.43-8.14-10.35-6.61-24.15-13.05-35.36-18.81-1.33-.69-5.75-4.66-7.48-3.21-.26.22-.56,3.19-.6,3.87ZM58.28,369.96c.55-85.67-1.02-171.75.52-257.2.04-2.18.35-10.54-.29-11.85-.27-.55-.94-1.03-1.57-1.05-.39,0-6.04,3.05-6.96,3.56-9.88,5.52-19.47,12.04-29.13,17.68-2.58,1.51-7.8,2.82-8.34,6.39-.69,4.53,0,8.85,0,13.1-.21,72.22.42,145.01-.04,217.22-.05,7.63.06,15.05.57,22.62.31,4.5-1.44,6.72,2.95,9.67,6.31,4.25,15.31,8.19,22.12,12.06,2.83,1.61,5.82,3.95,8.63,5.57,1.44.83,3.61,1.15,4.88,1.96,1.97,1.27,2.01,3.58,6.1,2.56.34-14.07-.57-28.32.56-42.31Z"/>
</svg>