<?xml version="1.0" encoding="UTF-8"?>
<svg id="Layer_1" xmlns="http://www.w3.org/2000/svg" xmlns:xlink="http://www.w3.org/1999/xlink" version="1.1" viewBox="0 0 512 512">
  <!-- Generator: Adobe Illustrator 30.0.0, SVG Export Plug-In . SVG Version: 2.1.1 Build 123)  -->
  <defs>
    <style>
      .st0 {
        fill: url(#linear-gradient);
      }
    </style>
    <linearGradient id="linear-gradient" x1="98.69" y1="256" x2="413.31" y2="256" gradientUnits="userSpaceOnUse">
      <stop offset="0" stop-color="#fff7a1"/>
      <stop offset=".08" stop-color="#f9e589"/>
      <stop offset=".24" stop-color="#e9b74c"/>
      <stop offset=".29" stop-color="#e4a837"/>
      <stop offset=".33" stop-color="#e9b84b"/>
      <stop offset=".44" stop-color="#f5da76"/>
      <stop offset=".53" stop-color="#fcef90"/>
      <stop offset=".58" stop-color="#fff79a"/>
      <stop offset=".62" stop-color="#fdf294"/>
      <stop offset=".67" stop-color="#f9e583"/>
      <stop offset=".73" stop-color="#f1ce67"/>
      <stop offset=".79" stop-color="#e7b041"/>
      <stop offset=".8" stop-color="#e4a837"/>
      <stop offset=".84" stop-color="#ebbc52"/>
      <stop offset=".91" stop-color="#f6dc7d"/>
      <stop offset=".97" stop-color="#fcf097"/>
      <stop offset="1" stop-color="#fff7a1"/>
    </linearGradient>
  </defs>
  <rect width="512" height="512"/>
  <path class="st0" d="M327.28,389.09c-.04-5.83.05-11.66.02-17.49-.41-63.86-.12-128.23-.71-192.07-.71-6.71,1-15.61,0-22.05-.11-.69-.44-1.3-1-1.71-1.47-1.08-3.98-2.01-5.54-2.95-5.67-3.37-11.8-7.49-17.75-10.42-1.44-.71-4.28-2.46-4.55-.24-.72,5.92.12,14.46.03,20.73-.87,64.28-.29,129.4-.39,193.82-.02,14.01.23,28.07-.32,42.03-.07,1.83.49,4.43-.07,6.04-.4,1.15-5.01,3.36-6.34,4.18-6.07,3.72-13.15,8.38-19.63,11.25-.79.35-3.08,1.64-3.41.55l-.19-329.31c3.34.65,5.83,2.87,8.73,4.46,19.62,10.75,39.6,21.87,59.12,32.86,6.28,3.54,14.11,7.25,19.97,11.26.58.39,2.16,1.6,2.26,2.15-.12,45.94.14,91.88.02,137.81-.08,30.27-.61,60.84-.37,91.27-.12.64-.85,1.34-1.37,1.69-1.96,1.32-4.74,2.55-6.74,3.78-2.74,1.68-5.47,3.29-8.28,4.95-2.56,1.52-9.32,6.5-11.45,7.22-.7.24-1.3.24-2.02.19ZM242.08,383.47c.09-96,.24-192.46.68-288.48,0-1.43,1.16-3.27-.54-4.18-8.15,4.18-16.14,8.69-23.99,13.25-9.8,5.69-19.4,11.7-29.12,17.38-9.99,5.84-20.17,11.24-30.13,17.04-1.53.89-2.88,2.38-4.7,2.94l-.79,2.44c-.3,20.35.31,40.81.37,61.09.18,56.1-.21,112.2.04,168.3.16.46,1.09.89,1.54,1.18,4.06,2.58,8.44,4.69,12.62,7.07,1.41.8,14.75,8.94,15.31,8.27.91-17.72-.03-35.43-.02-53.13,0-2.47.37-5.24.37-7.77.06-57.26-.09-114.73,0-172.08.38-2.03,7.4-4.9,9.28-6,5.19-3.03,11.59-7.78,16.96-10.19,2.11-.95,2.74-.9,2.96,1.57,1.4,15.4-1.37,32.66.34,48.19-1.27,69.53,1.78,138.93.34,208.42-.04,1.87-1.18,6.21.33,7.44,1.66,1.36,4.94,2.54,6.89,3.63,4.99,2.8,9.69,5.36,14.73,8.01,1.96,1.03,4.02,3.38,6.54,3.13.83-12.5-.02-25,0-37.52ZM382.93,158.11c-1.28,22.66.3,47.44.37,70.25.13,42.59-.27,85.23.16,127.8l.95.61c3.83-2.34,7.83-4.39,11.74-6.59,4.39-2.47,10.21-5.34,14.26-8.14,1.03-.71,1.9-1.77,2.03-3.06,0-49.58.29-99.05.72-148.61.04-4.89.3-10.49,0-15.3-.13-2.11-.29-4.03-2.21-5.25-6.68-4.27-15.58-8.42-22.82-12.14-.86-.44-3.71-3.01-4.83-2.07-.17.14-.36,2.06-.38,2.5ZM128.41,329.54c.36-55.28-.66-110.83.34-165.97.03-1.41.22-6.8-.18-7.65-.17-.36-.61-.67-1.01-.67-.25,0-3.9,1.97-4.49,2.3-6.38,3.56-12.57,7.77-18.79,11.41-1.66.97-5.03,1.82-5.38,4.12-.44,2.92,0,5.71,0,8.45-.14,46.6.27,93.57-.03,140.17-.03,4.92.04,9.71.37,14.59.2,2.9-.93,4.33,1.9,6.24,4.07,2.74,9.88,5.28,14.28,7.78,1.83,1.04,3.75,2.55,5.57,3.6.93.54,2.33.74,3.15,1.27,1.27.82,1.3,2.31,3.94,1.65.22-9.08-.37-18.27.36-27.3Z"/>
</svg>